<svg id="Layer_1" enable-background="new 0 0 120 100" height="100" viewBox="0 0 120 100" width="120" xmlns="http://www.w3.org/2000/svg"><path d="m15.705 49.641c-.237.071-.363.35-.282.622.082.272.34.435.577.364s.363-.349.282-.622-.34-.436-.577-.364z"/><path d="m14.791 48.512c-.237.071-.363.349-.282.622.082.272.34.435.577.364s.363-.35.282-.622-.34-.435-.577-.364z"/><path d="m114.677 51.633-3.844-7.9c-.075-.155-.188-.29-.326-.393l-8.324-6.179-2.099-1.625 1.2-.632c.122-.063.215-.172.259-.303l.911-2.679 1.914-2.886c.085-.129.111-.288.07-.438l-.724-2.663.714-2.086-1.018-.348-.767 2.241c-.034.102-.038.211-.01.314l.702 2.588-1.817 2.74c-.025.038-.046.08-.061.124l-.865 2.542-1.218.641.317-3.045 1.614-3.52c.186-.404.103-.881-.208-1.199-.312-.32-.788-.415-1.194-.236l-2.886 1.242-1.27-2.139.163-1.503 2.217-2.104c.047-.044.086-.097.113-.155l2.217-4.575-.967-.469-2.175 4.487-2.288 2.173c-.093.088-.15.205-.164.331l-.204 1.877c-.013.116.013.233.072.333l1.291 2.173-.275.118c-.331.143-.568.44-.633.795l-.06.333-.778-.417-1.113-4.96c-.111-.498-.54-.815-1.069-.84-.511.01-.943.377-1.037.88l-1.524 8.235c-.073.397.083.803.404 1.049l1.036.793-3.062-1.068-.285-3.34.985-3.893-1.043-.264-1.007 3.98c-.015.058-.02.118-.015.178l.323 3.776c.018.211.158.392.358.462l3.387 1.182-1.659.649c-.453.177-.731.637-.677 1.121.055.483.427.871.908.943l4.646.697-.634.724c-.27.306-.342.737-.188 1.114.154.378.508.636.914.667l5.209.4 5.322 4.422c1.6 1.328 2.721 3.095 3.244 5.107.759 2.917-.525 6.022-3.122 7.552l-.463.272c-.139-.071-.277-.138-.425-.191v-.966l1.681-3.737c.105-.234.03-.51-.179-.659-.21-.148-.495-.128-.681.048l-1.564 1.477v-1.086c0-.246-.167-.462-.406-.521-.241-.058-.488.051-.604.268l-1.738 3.248c-.087.163-.085.358.006.519l.856 1.51c-.318.139-.625.308-.896.538l-.276.234-4.125-2.666c-.474-.307-.878-.722-1.17-1.202l-.065-.107.027-3.064 3.413-1.445c.208-.088.339-.298.327-.523-.013-.227-.165-.421-.381-.486l-4.88-1.478c-.142-.043-.29-.026-.418.045l-1.734.965-2.375-3.901c-.096-.158-.209-.303-.31-.458l.191-2.793 2.365-.913c.21-.082.348-.285.344-.511-.003-.225-.146-.424-.359-.498l-3.844-1.35c-.128-.046-.267-.04-.392.014l-2.887 1.253-3.498-2.596c-.338-.251-.693-.473-1.047-.697l-.385-2.536 1.784-2.008c.15-.169.179-.413.072-.612-.107-.198-.331-.312-.55-.277l-5.956.854c-.111.016-.216.066-.297.145l-1.981 1.906c-.993-.104-1.994-.133-2.996-.06l-.555-.939.843-2.695c.067-.214-.006-.448-.185-.586-.178-.138-.423-.15-.613-.03l-3.736 2.337c-.138.087-.229.231-.249.394l-.305 2.59c-1.118.428-2.188.974-3.193 1.626l-.357-1.73v-2.424c0-.236-.153-.444-.38-.514-.224-.071-.47.016-.603.213l-3.218 4.759c-.053.077-.084.167-.091.26l-.306 4.021c-.71.899-1.346 1.855-1.91 2.852l-.539-.794v-3.354c0-.25-.172-.468-.417-.523-.247-.06-.495.063-.604.289l-1.922 3.958c-.049.1-.065.212-.047.321l.91 5.568-2.548 5.506-3.989 5.254-.389-1.506c-.046-.18-.183-.323-.361-.379-.179-.054-.373-.015-.512.107l-1.23 1.068c-.04.035-.075.075-.103.12l-1.448 2.306c-.623-.194-1.079-.769-1.079-1.454v-1.931c0-.767.263-1.52.74-2.119l2.614-3.282.298.489-.44 3.027c-.035.24.096.475.32.571.068.029.141.044.212.044.161 0 .317-.072.422-.205l2.715-3.438c.091-.115.131-.264.11-.409l-.563-3.938.171-.215c1.022-1.283 1.348-2.985.871-4.555l-.864-2.843 1.382-.483c.246-.086.452-.258.581-.484l2.333-4.118c.205-.361.183-.809-.056-1.148-.238-.339-.652-.513-1.061-.441l-5.902 1.007c-.057.01-.112.023-.167.042l-3.371 1.152.396-.97 2.274-.404c.074-.013.144-.041.206-.083l1.786-1.201 2.059.251c.091.012.185-.002.27-.036l6.07-2.501-.409-.994-5.94 2.447-2.118-.258c-.129-.02-.258.015-.365.087l-1.858 1.249-1.494.265.206-.504.628-.742 4.616-1.768 5.612-2.409c.153-.065.267-.198.309-.359l.671-2.593-1.041-.27-.605 2.338-5.351 2.297-2.771 1.061 7.292-8.619c.289-.341.336-.825.119-1.217l-.915-1.647-1.88 1.045.554.998-.547.646-10.976 8.944-.095-.503c-.077-.406-.381-.732-.781-.839s-.825.026-1.094.342l-.528.619-.203-.121 6.039-10.054c.257-.428.186-.976-.171-1.324l-1.19-1.159-1.501 1.541.581.564-5.604 9.329-.045-.027c-.272-.162-.602-.195-.902-.094-.3.104-.539.335-.652.631l-.477 1.239-.477.285.303-2.444 2.279-2.279-.761-.76-2.409 2.41c-.08.085-.133.195-.149.313l-.429 3.458-4.956 2.961-2.808 1.8c-.112.072-.21.164-.289.271l-.818 1.121v-1.696l1.456-2.89 3.071-1.34c.108-.048.198-.129.255-.232l1.116-2.017 1.327-1.919-.885-.611-1.354 1.964-1.055 1.902-3.082 1.345c-.115.051-.209.14-.265.251l-1.601 3.177c-.038.075-.058.158-.058.242v3.298l-.912 1.249c-.35.479-.245 1.151.234 1.502l.531.388-.543.693-.908.303-2.405-.801c-.053-.018-.108-.017-.162-.026v-1.486l1.044-2.557c.042-.102.051-.213.027-.32l-.487-2.182 1.305-1.722-.856-.65-1.456 1.921c-.096.126-.131.288-.096.442l.505 2.261-1.021 2.498c-.026.064-.04.134-.04.203v2.046c-.001.001-.001.001-.002.002l-1.602 2.439c-.201.306-.232.692-.084 1.026l1.571 3.538c.175.393.563.639.982.639.056 0 .113-.004.17-.014l1.861-.297-.656 1.486c-.163.369-.106.799.149 1.112l1.722 2.119v1.718h1.075v-1.311c.06-.012.122-.011.181-.033l.137-.052.734 1.537c.055.115.149.207.266.26l.885.396.438-.982-.704-.314-.611-1.28.658-.251.414 1.282 1.023-.33-.431-1.336 2.864-1.094c.112-.043.215-.104.307-.181l2.745-2.298.469.647c.104.144.267.223.435.223.072 0 .146-.015.215-.045l2.517-1.099c.218-.096.348-.322.319-.558l-.095-.786 1.528-.415c.286-.078.527-.271.667-.531l1.587-2.97h.819c.225 0 .444-.07.626-.201l1.709-1.225-.066.797c-.027.324-.172.625-.409.848l-9.725 9.153c-1.71 1.609-2.457 4.034-1.949 6.328l.026.118-1.738 1.343c-.812.628-1.855.869-2.86.664l-2.114-.432c-.172-.035-.348-.026-.515.021l-.461.134-2.475-1.675-3.889-2.295c-.252-.148-.553-.188-.835-.11l-3.363.938c-.23.064-.432.203-.575.396l-2.318 3.122c-.258.347-.283.815-.062 1.188.22.372.645.575 1.071.519l3.385-.461-.699.34c-.338.164-.565.493-.6.867l-.442 4.771c-.042.448.2.874.605 1.069.148.07.307.105.465.105.273 0 .542-.104.748-.302l2.422-2.338.276 2.916c.04.425.328.786.734.92.11.036.224.054.336.054.3 0 .593-.126.801-.357l2.2-2.454 1.642-.602.871 2.235v2.108c0 .397.219.762.569.949.159.084.333.126.506.126.209 0 .419-.062.599-.183l3.203-2.15c.332-.223.513-.61.47-1.008l-.248-2.299c.903-.162 1.764-.538 2.495-1.109l1.152-.9.064.287c.065.296.253.551.517.701l6.405 3.66c.162.093.346.142.533.142h4.071c.803.724 1.857 1.136 2.946 1.136.208 0 .417-.015.626-.046l1.57-.23-.399 3.683c-.042.385.126.762.439.988.187.134.407.203.629.203.152 0 .304-.032.447-.098l1.772-.809v1.348c0 .386.207.742.542.934.165.095.349.142.533.142.189 0 .378-.05.546-.149l1.268-.748-.079.894c-.04.447.203.872.608 1.065.148.07.306.104.462.104.273 0 .543-.104.748-.303l4.06-3.926 3.261-1.123 9.329-.353c.411-.016.778-.265.943-.643.166-.378.101-.816-.167-1.13l-1.071-1.254c-1.173-1.372-2.901-2.097-4.692-1.992.473-2.846-.708-5.717-2.97-7.444h1.084c.167 0 .325-.077.427-.21l1.708-2.227c.151-.197.147-.472-.009-.665-.156-.194-.424-.254-.648-.147l-.819.388.48-2.601c.04-.213-.053-.429-.233-.547-.182-.119-.415-.117-.595.003l-3.254 2.187 3.87-8.696 5.763-5.093 6.451-.437 5.236 3.718 4.773 8.019-.769 3.622c-.097.188-.188.369-.273.543-.601 1.204-.898 1.802-1.991 2.321l-3.001-.527c-.243-.044-.491-.001-.706.117l-2.976 1.644c-.223.123-.395.321-.485.559l-2.118 5.562c-.172.451-.021.962.367 1.248.189.141.414.21.638.21.234 0 .468-.076.662-.229l1.896-1.483-.034 2.878c-.005.454.275.863.702 1.021.122.045.248.066.373.066.312 0 .616-.136.824-.386l1.51-1.804c.102.603.285 1.525.613 2.974.093.408.413.726.822.813.075.017.151.024.227.024.333 0 .652-.154.857-.427l1.738-2.3c.022-.03.044-.061.063-.093l2.385-3.951 3.174-.129c.43-.018.809-.29.961-.692.153-.403.051-.858-.26-1.156l-1.935-1.862 1.301-1.855c.103-.147.167-.317.188-.496l.067-.591 1.503 1.588v3.105c0 .517.367.96.875 1.057l1.274.242c1.774.334 3.631-.068 5.104-1.113l.521-.37 1.14.283c.085.021.172.031.259.031.043 0 .086-.003.129-.008l1.6-.193-.413 2.273-1.378.847-2.526-1.16c-.387-.177-.842-.11-1.162.174l-2.264 2.01-.701-.104c-.396-.058-.794.108-1.029.433l-3.328 4.598c-.278.386-.271.908.019 1.286.208.271.525.42.853.42.129 0 .259-.023.384-.071l2.844-1.088-.286 1.064c-.115.428.044.883.4 1.146.189.139.413.209.638.209.199 0 .398-.056.575-.167l3.703-2.343 4.972-1.775 2.662-.42 4.049 1.099c.397.104.826-.023 1.097-.338s.336-.757.168-1.136l-.581-1.312c-.669-1.51-2.015-2.585-3.588-2.93l.795-3.215c.052-.212.091-.425.125-.638l4.356-2.796c.158-.103.287-.243.373-.41l2.562-4.94c.092-.176.133-.373.118-.571l-.487-6.894c-.014-.134-.049-.268-.11-.392zm-13.393 5.526.588-1.097v.189c0 .215.127.409.324.494.196.084.426.045.582-.104l.5-.472-.616 1.37c-.031.069-.047.145-.047.221v.885c-.163-.006-.323-.007-.483.009zm-8.343-7.322 3.24.981-2.37 1.004c-.197.084-.326.276-.327.49l-.015 1.688-2.027-3.329zm-6.204-9.425 2.27.797-1.324.511c-.195.076-.329.257-.343.465l-.126 1.843c-.782-.983-1.667-1.875-2.644-2.675zm-12.377-6.65 4.33-.621-.976 1.098c-.106.12-.154.28-.13.438l.295 1.944c-1.504-.786-3.114-1.341-4.776-1.651zm-9.055-.189 2.285-1.43-.48 1.536c-.046.145-.027.303.05.434l.433.732c-.122.018-.245.022-.367.042-.722.121-1.435.291-2.134.504zm-8.122 4.622 2.155-3.187v.724c0 .036.003.073.011.108l.461 2.237c-.064.049-.132.093-.196.142-.937.728-1.808 1.537-2.617 2.405zm-5.717 6.54.826-1.701v1.182c0 .107.032.213.093.302l.953 1.402c-.085.172-.176.34-.257.514l-.988 2.135zm-8.442 16.385.514-.446.384 1.487-.074.097c-.288.379-.743.604-1.219.604h-.699zm2.499-7.116-1.33 1.685.18-1.235c.018-.124-.008-.25-.073-.356l-.604-.991 1.44-1.808zm-22.101-.066-4.778 1.824-.854-1.051.363-.823.534.619c.104.12.254.187.407.187.063 0 .126-.012.188-.034.21-.078.35-.279.35-.504v-1.517l.254-.003.666 1.086c.099.162.274.257.458.257.043 0 .087-.006.13-.017.228-.057.392-.255.406-.488l.086-1.411.269-.149.855.892c.103.107.244.166.388.166.056 0 .112-.009.167-.027.196-.064.338-.235.366-.44l.224-1.7 1.153-.64 1.087 1.497zm6.826-1.633-1.753.766-.259-.357.182-.153 1.802-.489zm5.276-6.584h-1.118c-.397 0-.761.219-.948.568l-1.672 3.129-.778.211-.309-2.551c.639-1.229 1.375-2.36 1.676-2.581h4.038v-1.074h-4.118c-.257 0-.939 0-2.629 3.312-.048.095-.067.203-.055.309l.348 2.871-2.331.633c-.15.041-.29.114-.408.214l-.249.209-.878-1.209 2.614-.046-.038-2.15-3.2.057c-.176.003-.349.05-.502.135l-.234.13-.283-.39c-.126-.175-.347-.26-.556-.208l-3.363.778.242 1.047 2.997-.693-3.719 2.064-2.066.026c-.052.001-.104.005-.156.014l-2.996.479-.997-2.246.826-1.258 1.96.653c.221.074.458.074.68 0l1.555-.519c.2-.066.376-.19.506-.356l.786-1.003.532.389c.187.137.41.207.635.207.144 0 .289-.029.426-.088l1.779-.767c.008.068.003.134.024.202.163.545.68.871 1.155.729s.727-.699.564-1.244c-.04-.135-.103-.256-.181-.36l.145-.062c.164-.07.307-.181.417-.32l1.25-1.582-1.687-1.334-1.082 1.369-2.671 1.151-1.437-1.051 2.053-2.813 2.609-1.674 6.894-4.117c.207-.123.366-.312.452-.537l.152-.394.717.428c-.052.104-.091.215-.107.332l-.226 1.692-4.219 1.434.691 2.035 4.85-1.647c.387-.131.666-.47.72-.875l.272-2.039.107-.126.013.071c.071.372.332.68.688.81.356.131.754.063 1.048-.176l3.459-2.818-.886 1.047c-.073.086-.132.184-.175.288l-1.853 4.543-1.094.374-2.75.15c-.097.005-.193.023-.285.055l-3.935 1.327.688 2.037 3.796-1.28 2.752-.15c.099-.005.196-.023.289-.056l7.223-2.468 3.584-.611-1.018 1.796-6.161 2.154c-.097.033-.188.081-.271.141zm-14.684 28.637v-.294c0-.134-.025-.266-.073-.391l-.818-2.101 1.676.225.205 1.897zm4.12-5.352c-.743.58-1.706.84-2.639.716l-2.992-.401c-.173-.025-.349-.004-.513.056l-3.63 1.33c-.165.061-.313.161-.431.292l-.739.824-.145-1.528.983-.6 1.102-.294-.556-2.079-1.251.335c-.099.027-.194.067-.282.121l-3.218 1.963c-.067.041-.13.09-.187.145l-.462.446.119-1.284 3.437-1.673-.941-1.934-1.055.513-.996-.879c-.234-.206-.547-.301-.856-.259l-1.519.207.576-.775 2.567-.716 3.438 2.027 2.837 1.922c.264.178.595.231.903.142l.69-.2 1.854.379c1.617.33 3.297-.059 4.605-1.07l.937-.724.324 1.465zm36.351-8.565-.439 2.378c-.037.198.041.4.2.523.106.083.239.123.365.11l-.241.314h-2.366v.081l-1.044-.615c-.067-.039-.138-.068-.206-.104l.115-.259zm25.947 3.791-1.673 2.385c-.304.434-.246 1.024.136 1.392l.782.754-1.233.05c-.36.015-.689.209-.877.519l-2.655 4.398-.283.375c-.094-.479-.162-.872-.186-1.08.189-.454.898-1.812 1.51-2.926l-1.885-1.035c-.174.317-.327.6-.468.863l-2.068 1.69c-.052.042-.101.09-.144.143l-.208.248.008-.719 2.251-2.146-1.484-1.557-1.182 1.127-.172-.041c-.32-.076-.653-.001-.909.199l-.841.657.603-1.583 2.299-1.27 2.95.518c.205.034.409.014.6-.066 2.064-.858 2.668-2.068 3.365-3.469.102-.203.208-.417.325-.642.045-.086.077-.178.098-.272l.4-1.882 1.182 1.25zm10.001 8.753.582.267-.042.026-.369.14-.565-.084zm-4.367 3.2.828-1.144.316.047c-.016.038-.036.075-.046.115l-.168.626zm15.143-1.697-1.898-.516c-.146-.039-.298-.049-.449-.024l-2.988.472c-.065.011-.131.027-.193.05l-5.179 1.849c-.075.026-.146.062-.214.104l-1.477.934.286-1.064 2.734-1.04c.063-.023.124-.054.182-.089l4.118-2.531c.26-.16.439-.423.494-.724l1.053-5.795c.105-.58-.276-1.138-.855-1.248l-2.15-.412c-.288-.058-.586.01-.824.179l-3.732 2.648c-.997.708-2.255.982-3.458.754l-.4-.076v-5.561h-2.15v.216l-3.75-3.964-1.702-2.86 1.291-1.256c.069-.068.119-.153.145-.246l.319-1.189-1.039-.279-.28 1.047-1.002.974-3.18-5.342.68-.627c.061-.056.106-.124.137-.2l.731-1.876-1.002-.391-.687 1.761-.588.542-5.208-3.697.569-1.307c.055-.126.06-.269.013-.397l-.48-1.327-1.012.365.408 1.126-.505 1.161-7.149.484c-.049.003-.093.023-.14.033l-.307-1.078c-.039-.137-.13-.252-.254-.322l-1.876-1.048-.525.938 1.683.941.34 1.192-5.773 5.101c-.115.102-.208.228-.271.368l-.01.023-.916-1.39c-.1-.15-.269-.241-.449-.241h-1.891v1.074h1.601l1.106 1.681.068-.045-2.652 5.959-1.577-.788-.48.961 1.62.81-1.447 3.252c-.983-.071-1.983.12-2.872.594l-3.634 1.943c-1.154.617-2.492.783-3.763.473l-1.593-.392-.514 2.088 1.593.392c1.787.438 3.668.205 5.291-.664l3.634-1.943c.956-.513 2.129-.488 3.061.063l1.839 1.083c2.008 1.182 3.086 3.519 2.685 5.812l-.236 1.348c-.06.335.044.678.277.925.234.246.563.369.909.328l1.104-.132c.978-.112 1.948.175 2.693.791l-7.2.272c-.105.004-.209.023-.31.058l-3.638 1.253c-.148.051-.284.135-.396.244l-2.159 2.088.122-1.377 2.298-1.801-1.326-1.693-2.666 2.089c-.234.184-.382.456-.408.752l-.105 1.185-.972.573v-2.182l1.835-1.533-1.379-1.65-2.221 1.855c-.245.204-.386.507-.386.825v.854l-.946.432.287-2.642 3.5-2.021 5.897.679 3.001 1.029.697-2.033-.986-.338.498-2.324c.096-.447-.102-.906-.492-1.144l-2.806-1.708c-.39-.237-.887-.203-1.239.085l-4.417 3.607-.261-.03c-.227-.026-.46.022-.661.137l-4.103 2.369-2.739.401c-.845.12-1.694-.254-2.17-.961l-.348-.518c-.325-.484-.447-1.066-.344-1.64l.555-3.073-2.116-.383-.555 3.073c-.147.814-.055 1.635.244 2.388h-1.673l.378-1.134c.019-.055.028-.112.028-.17v-2.439h-1.075v2.353l-.385 1.154-4.751-2.715 1.5-.666c.087-.038.162-.1.218-.177l1.586-2.196-.872-.629-1.501 2.078-1.628.724-1.222-5.516c-.115-.521-.128-1.051-.06-1.568l1.808 1.01c.082.045.172.067.262.067.083 0 .167-.019.244-.058l1.708-.869-.487-.959-1.453.739-1.804-1.008c.242-.617.61-1.186 1.104-1.652l9.725-9.153c.624-.587 1.007-1.382 1.078-2.236l.218-2.619.721-.517 2.983-1.043.838 2.758c.271.893.086 1.86-.495 2.59l-5.859 7.357c-.779.979-1.208 2.207-1.208 3.458v1.931c0 2.029 1.651 3.68 3.68 3.68h1.47c1.144 0 2.239-.544 2.931-1.454l4.962-6.535c.047-.062.087-.129.119-.199l4.39-9.488c1.34-2.896 3.381-5.461 5.901-7.417 1.933-1.501 4.23-2.507 6.646-2.91 3.947-.657 8.049.335 11.258 2.716l3.797 2.818c1.626 1.207 2.984 2.696 4.038 4.427l6.085 9.994c.459.754 1.095 1.407 1.838 1.89l3.582 2.315-.554.471-.938-.572-1.119 1.836 1.602.977c.396.241.901.201 1.256-.099l3.133-2.663c.324-.276.749-.394 1.169-.325s.785.319 1.004.685l1.309 2.19c.74 1.238.957 2.692.61 4.094l-1.095 4.429c-.079.32-.007.66.197.921.204.26.516.412.847.412h.247c.847-.008 1.638.353 2.191.957zm-51.578-3.03-.077-.026c-.073-.025-.148-.043-.226-.052l-3.124-.36 2.207-1.803 1.504.915zm54.534-8.612-.942-1.114-.82.693.975 1.154-2.373 1.523c-.161-.885-.474-1.743-.948-2.537l-1.178-1.972c3.395-2.022 5.071-6.095 4.077-9.923-.638-2.451-2.004-4.603-3.951-6.221l-5.586-4.641c-.172-.143-.383-.228-.605-.245l-3.406-.262.515-.587c.26-.295.337-.709.202-1.078s-.462-.636-.851-.695l-2.611-.392.8-.313c.361-.141.619-.466.673-.851.055-.385-.103-.769-.411-1.004l-2.782-2.131.448-2.422.07.314c.068.305.266.564.54.712l1.824.979-.239 1.312 2.115.385.601-3.301 1.059-.456-.522 1.14c-.049.106-.08.22-.092.337l-.427 4.087c-.039.37.117.733.411.962l3.327 2.575 7.521 5.583-.361.415.811.705.311-.358 3.149 6.472-.423.102.252 1.045.532-.128.419 5.932-.894-.092h-1.144v1.074l1.088-.002.49.051z"/></svg>